<svg xmlns="http://www.w3.org/2000/svg" viewBox="0 0 1254 520" role="img" aria-labelledby="title desc">
  <title id="title">Margo Boutique</title>
  <desc id="desc">Elegant Margo Boutique wordmark inspired by the boutique brand logo.</desc>
  <defs>
    <radialGradient id="paper" cx="50%" cy="40%" r="72%">
      <stop offset="0%" stop-color="#fffdf9"/>
      <stop offset="100%" stop-color="#eee7df"/>
    </radialGradient>
    <linearGradient id="gold" x1="0%" y1="0%" x2="100%" y2="100%">
      <stop offset="0%" stop-color="#f1d18a"/>
      <stop offset="48%" stop-color="#b98d3c"/>
      <stop offset="100%" stop-color="#704b1d"/>
    </linearGradient>
    <filter id="softShadow" x="-20%" y="-20%" width="140%" height="140%">
      <feDropShadow dx="0" dy="12" stdDeviation="14" flood-color="#171413" flood-opacity=".14"/>
    </filter>
  </defs>
  <rect width="1254" height="520" rx="28" fill="url(#paper)"/>
  <g fill="#090909" filter="url(#softShadow)">
    <text x="52" y="255" font-family="Georgia, 'Times New Roman', serif" font-size="230" font-weight="700" letter-spacing="12">MARGO</text>
    <text x="745" y="384" font-family="Georgia, 'Times New Roman', serif" font-size="112" font-style="italic">Boutique</text>
  </g>
  <g transform="translate(92 284)">
    <path d="M156 20c49-8 91 14 114 48 22 33 27 77 11 112-17 36-55 60-107 68-58 9-113-7-146-42C-3 171-6 121 18 84 43 46 94 30 156 20Z" fill="#0c0b0b"/>
    <path d="M60 103c45 21 93 31 143 31 26 0 55-2 87-8 9 30 2 61-22 85-26 27-71 42-122 39-52-3-96-24-119-57-22-32-17-65 33-90Z" fill="#111"/>
    <path d="M50 182c-15 42-31 80-48 114h65c11-21 23-50 37-86l-54-28Z" fill="#101010"/>
    <path d="M213 188c36 32 70 69 103 111h74c-36-55-75-100-116-135l-61 24Z" fill="#101010"/>
    <path d="M60 88c-20-26-17-60 9-83 24-21 61-25 91-10 33 17 46 54 31 87-29 12-80 14-131 6Z" fill="#111"/>
    <path d="M36 72c27 17 64 27 110 30 47 3 91-2 132-15" fill="none" stroke="url(#gold)" stroke-width="9" stroke-linecap="round"/>
    <path d="M35 191c63 25 143 25 244 0" fill="none" stroke="url(#gold)" stroke-width="8" stroke-linecap="round" opacity=".72"/>
    <circle cx="98" cy="44" r="8" fill="url(#gold)"/>
    <circle cx="122" cy="58" r="5" fill="url(#gold)"/>
  </g>
</svg>
