<svg xmlns="http://www.w3.org/2000/svg" width="879" height="313" viewBox="0 0 879 313" role="img" aria-labelledby="title desc">
  <title id="title">Margo Boutique logo</title>
  <desc id="desc">Vectorized MARGO Boutique logo with black lettering, gold lines, and white background.</desc>
  <rect width="100%" height="100%" fill="#fff"/>
  <g fill="#050505" fill-rule="evenodd">
    <path d="M 539.00 199.00 L 538.00 200.00 L 539.00 201.00 L 543.00 201.00 L 544.00 203.00 L 542.00 206.00 L 541.00 211.00 L 539.00 214.00 L 539.00 216.00 L 535.00 225.00 L 536.00 229.00 L 540.00 231.00 L 544.00 231.00 L 550.00 228.00 L 554.00 224.00 L 555.00 225.00 L 555.00 228.00 L 558.00 231.00 L 562.00 231.00 L 566.00 229.00 L 570.00 223.00 L 569.00 223.00 L 564.00 229.00 L 561.00 229.00 L 560.00 228.00 L 560.00 225.00 L 566.00 212.00 L 567.00 207.00 L 570.00 202.00 L 570.00 199.00 L 566.00 199.00 L 565.00 200.00 L 557.00 219.00 L 546.00 229.00 L 541.00 229.00 L 540.00 228.00 L 540.00 226.00 L 545.00 215.00 L 545.00 213.00 L 547.00 210.00 L 547.00 208.00 L 549.00 205.00 L 549.00 203.00 L 551.00 200.00 L 550.00 199.00 Z
M 479.00 199.00 L 468.00 199.00 L 467.00 200.00 L 472.00 201.00 L 473.00 202.00 L 472.00 206.00 L 470.00 209.00 L 470.00 211.00 L 467.00 216.00 L 466.00 221.00 L 464.00 224.00 L 464.00 228.00 L 465.00 230.00 L 467.00 231.00 L 472.00 231.00 L 479.00 225.00 L 478.00 223.00 L 478.00 224.00 L 473.00 229.00 L 470.00 229.00 L 469.00 228.00 L 470.00 222.00 L 473.00 217.00 L 474.00 212.00 L 479.00 202.00 Z
M 394.00 199.00 L 394.00 200.00 L 397.00 200.00 L 400.00 202.00 L 392.00 220.00 L 392.00 222.00 L 391.00 223.00 L 391.00 228.00 L 395.00 231.00 L 400.00 231.00 L 404.00 229.00 L 410.00 223.00 L 411.00 224.00 L 410.00 227.00 L 412.00 230.00 L 414.00 231.00 L 418.00 231.00 L 420.00 230.00 L 425.00 225.00 L 425.00 223.00 L 419.00 229.00 L 416.00 229.00 L 415.00 228.00 L 415.00 226.00 L 426.00 199.00 L 421.00 199.00 L 420.00 200.00 L 420.00 202.00 L 418.00 205.00 L 418.00 207.00 L 413.00 218.00 L 406.00 226.00 L 401.00 229.00 L 397.00 229.00 L 395.00 227.00 L 406.00 199.00 Z
M 607.00 199.00 L 605.00 199.00 L 604.00 198.00 L 599.00 198.00 L 598.00 199.00 L 596.00 199.00 L 589.00 203.00 L 584.00 208.00 L 580.00 215.00 L 580.00 224.00 L 584.00 229.00 L 589.00 231.00 L 595.00 231.00 L 601.00 228.00 L 605.00 224.00 L 605.00 223.00 L 604.00 223.00 L 597.00 229.00 L 589.00 229.00 L 585.00 224.00 L 585.00 219.00 L 586.00 218.00 L 586.00 215.00 L 588.00 213.00 L 597.00 213.00 L 607.00 209.00 L 610.00 205.00 L 610.00 202.00 Z
M 605.00 201.00 L 605.00 205.00 L 602.00 209.00 L 594.00 212.00 L 589.00 212.00 L 588.00 211.00 L 590.00 207.00 L 596.00 201.00 L 598.00 200.00 L 604.00 200.00 Z
M 526.00 199.00 L 521.00 199.00 L 519.00 202.00 L 518.00 200.00 L 515.00 198.00 L 508.00 199.00 L 502.00 202.00 L 498.00 206.00 L 497.00 206.00 L 492.00 212.00 L 489.00 220.00 L 489.00 223.00 L 492.00 229.00 L 496.00 231.00 L 501.00 231.00 L 502.00 230.00 L 504.00 230.00 L 508.00 227.00 L 509.00 228.00 L 501.00 248.00 L 500.00 249.00 L 494.00 249.00 L 494.00 250.00 L 512.00 250.00 L 512.00 249.00 L 507.00 249.00 L 506.00 248.00 L 510.00 241.00 L 510.00 239.00 L 512.00 236.00 L 512.00 234.00 L 514.00 231.00 L 514.00 229.00 L 516.00 226.00 L 516.00 224.00 L 518.00 221.00 L 518.00 219.00 L 520.00 216.00 L 521.00 211.00 L 526.00 201.00 Z
M 508.00 227.00 L 509.00 226.00 L 510.00 227.00 L 509.00 228.00 Z
M 516.00 200.00 L 517.00 201.00 L 518.00 206.00 L 514.00 215.00 L 514.00 217.00 L 511.00 222.00 L 503.00 229.00 L 501.00 229.00 L 500.00 230.00 L 496.00 229.00 L 495.00 228.00 L 495.00 220.00 L 502.00 206.00 L 509.00 200.00 Z
M 376.00 200.00 L 371.00 198.00 L 366.00 198.00 L 365.00 199.00 L 363.00 199.00 L 355.00 204.00 L 351.00 209.00 L 348.00 216.00 L 348.00 222.00 L 349.00 223.00 L 349.00 225.00 L 354.00 230.00 L 356.00 230.00 L 357.00 231.00 L 363.00 231.00 L 371.00 227.00 L 377.00 221.00 L 380.00 215.00 L 380.00 206.00 Z
M 372.00 200.00 L 375.00 203.00 L 375.00 210.00 L 374.00 211.00 L 374.00 214.00 L 369.00 224.00 L 363.00 229.00 L 356.00 229.00 L 353.00 225.00 L 353.00 221.00 L 354.00 220.00 L 355.00 213.00 L 358.00 207.00 L 363.00 201.00 L 365.00 200.00 Z
M 454.00 192.00 L 449.00 192.00 L 447.00 197.00 L 445.00 199.00 L 439.00 199.00 L 439.00 200.00 L 444.00 200.00 L 445.00 201.00 L 444.00 205.00 L 442.00 208.00 L 442.00 210.00 L 440.00 213.00 L 440.00 215.00 L 438.00 218.00 L 438.00 220.00 L 436.00 223.00 L 436.00 228.00 L 440.00 231.00 L 444.00 231.00 L 448.00 229.00 L 452.00 225.00 L 452.00 224.00 L 451.00 224.00 L 445.00 229.00 L 441.00 229.00 L 440.00 228.00 L 450.00 202.00 L 451.00 201.00 L 458.00 201.00 L 459.00 200.00 L 459.00 199.00 L 453.00 199.00 L 452.00 198.00 Z
M 481.00 179.00 L 479.00 181.00 L 479.00 184.00 L 482.00 186.00 L 484.00 186.00 L 486.00 184.00 L 486.00 181.00 L 484.00 179.00 Z
M 338.00 184.00 L 335.00 181.00 L 331.00 179.00 L 327.00 179.00 L 326.00 178.00 L 303.00 178.00 L 303.00 179.00 L 308.00 179.00 L 309.00 180.00 L 310.00 179.00 L 311.00 181.00 L 309.00 184.00 L 309.00 186.00 L 307.00 189.00 L 307.00 191.00 L 305.00 194.00 L 305.00 196.00 L 303.00 199.00 L 301.00 206.00 L 298.00 211.00 L 297.00 216.00 L 295.00 219.00 L 295.00 221.00 L 293.00 224.00 L 292.00 228.00 L 291.00 229.00 L 284.00 229.00 L 284.00 230.00 L 314.00 230.00 L 315.00 229.00 L 322.00 228.00 L 328.00 225.00 L 333.00 219.00 L 334.00 212.00 L 330.00 206.00 L 324.00 203.00 L 326.00 201.00 L 329.00 201.00 L 333.00 199.00 L 339.00 193.00 L 339.00 186.00 Z
M 322.00 204.00 L 326.00 209.00 L 326.00 215.00 L 323.00 221.00 L 318.00 226.00 L 314.00 228.00 L 311.00 228.00 L 310.00 229.00 L 300.00 229.00 L 299.00 227.00 L 303.00 219.00 L 303.00 217.00 L 305.00 214.00 L 305.00 212.00 L 307.00 209.00 L 308.00 205.00 L 310.00 203.00 L 320.00 203.00 Z
M 328.00 180.00 L 332.00 185.00 L 332.00 191.00 L 330.00 195.00 L 323.00 201.00 L 311.00 201.00 L 310.00 200.00 L 312.00 197.00 L 312.00 195.00 L 314.00 192.00 L 314.00 190.00 L 318.00 181.00 L 320.00 179.00 L 325.00 179.00 L 326.00 180.00 Z
M 406.00 22.00 L 405.00 23.00 L 406.00 24.00 L 419.00 26.00 L 424.00 32.00 L 424.00 143.00 L 423.00 144.00 L 423.00 146.00 L 419.00 150.00 L 417.00 151.00 L 413.00 151.00 L 412.00 152.00 L 405.00 152.00 L 405.00 154.00 L 461.00 154.00 L 460.00 152.00 L 448.00 151.00 L 446.00 150.00 L 441.00 144.00 L 441.00 95.00 L 442.00 94.00 L 454.00 94.00 L 455.00 95.00 L 460.00 95.00 L 463.00 98.00 L 487.00 134.00 L 493.00 142.00 L 500.00 149.00 L 505.00 152.00 L 512.00 153.00 L 513.00 154.00 L 533.00 155.00 L 534.00 153.00 L 532.00 152.00 L 528.00 152.00 L 521.00 149.00 L 511.00 140.00 L 499.00 124.00 L 477.00 91.00 L 478.00 90.00 L 481.00 90.00 L 484.00 88.00 L 486.00 88.00 L 494.00 83.00 L 502.00 75.00 L 506.00 67.00 L 506.00 64.00 L 507.00 63.00 L 507.00 50.00 L 506.00 49.00 L 505.00 44.00 L 501.00 37.00 L 496.00 32.00 L 490.00 28.00 L 476.00 23.00 L 470.00 23.00 L 469.00 22.00 Z
M 442.00 26.00 L 458.00 25.00 L 459.00 26.00 L 469.00 27.00 L 476.00 30.00 L 485.00 39.00 L 489.00 49.00 L 489.00 56.00 L 490.00 57.00 L 489.00 67.00 L 485.00 78.00 L 477.00 86.00 L 470.00 89.00 L 460.00 90.00 L 459.00 91.00 L 446.00 91.00 L 441.00 89.00 L 441.00 82.00 L 440.00 81.00 L 440.00 77.00 L 441.00 76.00 L 441.00 35.00 L 440.00 34.00 L 441.00 33.00 L 441.00 27.00 Z
M 24.00 22.00 L 24.00 24.00 L 38.00 26.00 L 40.00 27.00 L 44.00 32.00 L 44.00 71.00 L 43.00 72.00 L 42.00 127.00 L 41.00 128.00 L 41.00 138.00 L 40.00 139.00 L 40.00 142.00 L 38.00 146.00 L 33.00 150.00 L 27.00 151.00 L 26.00 152.00 L 20.00 152.00 L 20.00 154.00 L 69.00 154.00 L 68.00 152.00 L 62.00 152.00 L 61.00 151.00 L 54.00 150.00 L 48.00 144.00 L 48.00 142.00 L 47.00 141.00 L 48.00 53.00 L 49.00 52.00 L 49.00 40.00 L 50.00 39.00 L 71.00 80.00 L 71.00 82.00 L 75.00 90.00 L 77.00 92.00 L 77.00 94.00 L 99.00 137.00 L 99.00 139.00 L 101.00 141.00 L 101.00 143.00 L 106.00 153.00 L 109.00 155.00 L 168.00 38.00 L 169.00 39.00 L 169.00 56.00 L 170.00 57.00 L 169.00 59.00 L 169.00 66.00 L 170.00 67.00 L 170.00 142.00 L 168.00 147.00 L 166.00 149.00 L 162.00 151.00 L 158.00 151.00 L 157.00 152.00 L 150.00 152.00 L 150.00 154.00 L 207.00 154.00 L 206.00 152.00 L 200.00 152.00 L 199.00 151.00 L 195.00 151.00 L 191.00 149.00 L 187.00 143.00 L 187.00 128.00 L 186.00 127.00 L 186.00 64.00 L 185.00 63.00 L 185.00 37.00 L 186.00 36.00 L 186.00 32.00 L 190.00 27.00 L 195.00 25.00 L 205.00 24.00 L 205.00 22.00 L 171.00 22.00 L 169.00 24.00 L 115.00 132.00 L 113.00 130.00 L 78.00 60.00 L 78.00 58.00 L 74.00 52.00 L 74.00 50.00 L 61.00 25.00 L 61.00 23.00 L 60.00 22.00 Z
M 304.00 21.00 L 301.00 26.00 L 301.00 28.00 L 293.00 45.00 L 293.00 47.00 L 290.00 52.00 L 288.00 59.00 L 284.00 66.00 L 284.00 68.00 L 274.00 89.00 L 272.00 96.00 L 265.00 110.00 L 265.00 112.00 L 262.00 117.00 L 262.00 119.00 L 259.00 124.00 L 259.00 126.00 L 256.00 131.00 L 256.00 133.00 L 253.00 139.00 L 246.00 148.00 L 237.00 152.00 L 232.00 152.00 L 231.00 154.00 L 278.00 154.00 L 277.00 152.00 L 270.00 152.00 L 269.00 151.00 L 264.00 150.00 L 259.00 144.00 L 259.00 140.00 L 260.00 139.00 L 261.00 133.00 L 266.00 123.00 L 268.00 116.00 L 271.00 111.00 L 273.00 104.00 L 275.00 102.00 L 322.00 102.00 L 323.00 103.00 L 327.00 112.00 L 327.00 114.00 L 329.00 117.00 L 329.00 119.00 L 332.00 124.00 L 335.00 134.00 L 337.00 137.00 L 337.00 139.00 L 338.00 140.00 L 338.00 147.00 L 333.00 151.00 L 330.00 151.00 L 329.00 152.00 L 322.00 152.00 L 321.00 154.00 L 378.00 154.00 L 377.00 152.00 L 371.00 152.00 L 363.00 149.00 L 357.00 143.00 L 353.00 135.00 L 351.00 128.00 L 347.00 121.00 L 345.00 114.00 L 342.00 109.00 L 340.00 102.00 L 337.00 97.00 L 335.00 90.00 L 332.00 85.00 L 332.00 83.00 L 330.00 80.00 L 328.00 73.00 L 322.00 61.00 L 322.00 59.00 L 320.00 56.00 L 320.00 54.00 L 318.00 51.00 L 316.00 44.00 L 313.00 39.00 L 311.00 32.00 L 308.00 27.00 L 308.00 25.00 L 306.00 21.00 Z
M 299.00 45.00 L 320.00 96.00 L 319.00 97.00 L 278.00 97.00 L 277.00 95.00 L 279.00 92.00 L 279.00 90.00 L 282.00 85.00 L 282.00 83.00 L 284.00 80.00 L 286.00 73.00 L 290.00 66.00 L 290.00 64.00 L 295.00 54.00 L 295.00 52.00 Z
M 768.00 22.00 L 767.00 23.00 L 759.00 25.00 L 749.00 30.00 L 737.00 39.00 L 727.00 51.00 L 722.00 61.00 L 722.00 63.00 L 719.00 69.00 L 718.00 77.00 L 717.00 78.00 L 717.00 99.00 L 718.00 100.00 L 718.00 104.00 L 719.00 105.00 L 719.00 108.00 L 720.00 109.00 L 722.00 117.00 L 729.00 129.00 L 739.00 140.00 L 749.00 147.00 L 762.00 153.00 L 765.00 153.00 L 769.00 155.00 L 774.00 155.00 L 775.00 156.00 L 785.00 156.00 L 786.00 157.00 L 791.00 157.00 L 792.00 156.00 L 806.00 155.00 L 807.00 154.00 L 810.00 154.00 L 811.00 153.00 L 816.00 152.00 L 828.00 146.00 L 835.00 141.00 L 844.00 132.00 L 852.00 119.00 L 852.00 117.00 L 856.00 108.00 L 857.00 100.00 L 858.00 99.00 L 858.00 78.00 L 857.00 77.00 L 857.00 73.00 L 856.00 72.00 L 856.00 69.00 L 855.00 68.00 L 854.00 63.00 L 849.00 52.00 L 844.00 45.00 L 833.00 34.00 L 822.00 27.00 L 820.00 27.00 L 815.00 24.00 L 813.00 24.00 L 809.00 22.00 L 805.00 22.00 L 804.00 21.00 L 800.00 21.00 L 799.00 20.00 L 777.00 20.00 L 776.00 21.00 Z
M 775.00 24.00 L 782.00 24.00 L 783.00 23.00 L 797.00 24.00 L 798.00 25.00 L 804.00 26.00 L 815.00 32.00 L 826.00 43.00 L 830.00 49.00 L 835.00 59.00 L 835.00 61.00 L 837.00 65.00 L 837.00 68.00 L 838.00 69.00 L 838.00 73.00 L 839.00 74.00 L 839.00 79.00 L 840.00 80.00 L 840.00 101.00 L 839.00 102.00 L 839.00 108.00 L 838.00 109.00 L 837.00 116.00 L 833.00 125.00 L 833.00 127.00 L 831.00 129.00 L 828.00 135.00 L 818.00 145.00 L 807.00 151.00 L 801.00 152.00 L 800.00 153.00 L 780.00 153.00 L 779.00 152.00 L 776.00 152.00 L 764.00 147.00 L 757.00 142.00 L 746.00 129.00 L 740.00 117.00 L 740.00 115.00 L 738.00 111.00 L 738.00 108.00 L 737.00 107.00 L 737.00 103.00 L 736.00 102.00 L 736.00 97.00 L 735.00 96.00 L 735.00 76.00 L 736.00 75.00 L 736.00 69.00 L 737.00 68.00 L 737.00 65.00 L 738.00 64.00 L 738.00 61.00 L 739.00 60.00 L 740.00 55.00 L 748.00 41.00 L 757.00 32.00 L 768.00 26.00 L 774.00 25.00 Z
M 576.00 36.00 L 565.00 47.00 L 560.00 54.00 L 554.00 67.00 L 554.00 70.00 L 552.00 75.00 L 552.00 80.00 L 551.00 81.00 L 551.00 96.00 L 552.00 97.00 L 553.00 107.00 L 554.00 108.00 L 556.00 116.00 L 560.00 124.00 L 565.00 131.00 L 574.00 140.00 L 581.00 145.00 L 593.00 151.00 L 595.00 151.00 L 602.00 154.00 L 605.00 154.00 L 606.00 155.00 L 610.00 155.00 L 611.00 156.00 L 640.00 156.00 L 641.00 155.00 L 647.00 155.00 L 652.00 153.00 L 660.00 152.00 L 669.00 148.00 L 674.00 147.00 L 674.00 140.00 L 673.00 139.00 L 673.00 128.00 L 674.00 127.00 L 674.00 125.00 L 673.00 124.00 L 673.00 115.00 L 674.00 114.00 L 674.00 109.00 L 675.00 108.00 L 675.00 106.00 L 678.00 103.00 L 683.00 102.00 L 684.00 101.00 L 690.00 101.00 L 690.00 99.00 L 689.00 98.00 L 684.00 98.00 L 683.00 99.00 L 677.00 99.00 L 676.00 98.00 L 674.00 99.00 L 648.00 99.00 L 647.00 98.00 L 634.00 98.00 L 633.00 99.00 L 633.00 101.00 L 648.00 102.00 L 653.00 104.00 L 656.00 107.00 L 657.00 109.00 L 657.00 113.00 L 658.00 114.00 L 658.00 139.00 L 656.00 144.00 L 652.00 148.00 L 648.00 150.00 L 646.00 150.00 L 642.00 152.00 L 637.00 152.00 L 636.00 153.00 L 619.00 153.00 L 618.00 152.00 L 614.00 152.00 L 613.00 151.00 L 607.00 150.00 L 597.00 145.00 L 584.00 133.00 L 579.00 126.00 L 573.00 113.00 L 573.00 110.00 L 572.00 109.00 L 572.00 106.00 L 570.00 101.00 L 570.00 95.00 L 569.00 94.00 L 569.00 78.00 L 570.00 77.00 L 570.00 71.00 L 571.00 70.00 L 572.00 63.00 L 575.00 57.00 L 575.00 55.00 L 582.00 43.00 L 595.00 31.00 L 609.00 25.00 L 621.00 24.00 L 622.00 23.00 L 639.00 24.00 L 640.00 25.00 L 643.00 25.00 L 644.00 26.00 L 649.00 27.00 L 656.00 31.00 L 665.00 40.00 L 669.00 48.00 L 671.00 58.00 L 673.00 58.00 L 673.00 44.00 L 672.00 43.00 L 672.00 30.00 L 671.00 29.00 L 671.00 27.00 L 670.00 26.00 L 666.00 26.00 L 665.00 25.00 L 662.00 25.00 L 657.00 23.00 L 653.00 23.00 L 652.00 22.00 L 648.00 22.00 L 647.00 21.00 L 640.00 21.00 L 639.00 20.00 L 615.00 20.00 L 614.00 21.00 L 605.00 22.00 L 604.00 23.00 L 593.00 26.00 L 583.00 31.00 Z"/>
  </g>
  <g fill="#B59A54" fill-rule="evenodd">
    <path d="M 442.00 262.00 L 441.00 264.00 L 441.00 266.00 L 440.00 267.00 L 440.00 269.00 L 439.00 270.00 L 439.00 272.00 L 438.00 273.00 L 438.00 277.00 L 437.00 278.00 L 437.00 285.00 L 440.00 291.00 L 441.00 292.00 L 444.00 292.00 L 446.00 290.00 L 447.00 288.00 L 447.00 286.00 L 448.00 285.00 L 448.00 278.00 L 447.00 277.00 L 447.00 273.00 L 446.00 272.00 L 446.00 269.00 L 445.00 268.00 L 444.00 263.00 Z
M 448.00 259.00 L 449.00 260.00 L 449.00 263.00 L 452.00 269.00 L 455.00 272.00 L 455.00 273.00 L 456.00 273.00 L 459.00 276.00 L 461.00 277.00 L 463.00 277.00 L 464.00 278.00 L 470.00 278.00 L 472.00 276.00 L 472.00 273.00 L 470.00 270.00 L 469.00 270.00 L 467.00 268.00 L 464.00 268.00 L 463.00 267.00 L 461.00 267.00 L 455.00 264.00 L 449.00 258.00 Z
M 437.00 258.00 L 436.00 258.00 L 436.00 259.00 L 429.00 265.00 L 425.00 267.00 L 423.00 267.00 L 422.00 268.00 L 419.00 268.00 L 417.00 269.00 L 414.00 272.00 L 414.00 277.00 L 416.00 278.00 L 423.00 278.00 L 427.00 275.00 L 428.00 275.00 L 434.00 268.00 L 436.00 264.00 L 436.00 262.00 L 437.00 261.00 Z
M 505.00 267.00 L 505.00 262.00 L 501.00 258.00 L 499.00 258.00 L 498.00 257.00 L 495.00 257.00 L 494.00 256.00 L 486.00 256.00 L 485.00 257.00 L 483.00 257.00 L 482.00 258.00 L 480.00 258.00 L 476.00 260.00 L 473.00 260.00 L 472.00 261.00 L 466.00 261.00 L 465.00 260.00 L 462.00 260.00 L 461.00 259.00 L 459.00 259.00 L 461.00 261.00 L 463.00 261.00 L 467.00 263.00 L 471.00 263.00 L 472.00 262.00 L 475.00 262.00 L 476.00 261.00 L 478.00 261.00 L 479.00 260.00 L 481.00 260.00 L 485.00 258.00 L 496.00 258.00 L 501.00 261.00 L 497.00 264.00 L 497.00 267.00 L 499.00 269.00 L 503.00 269.00 Z
M 379.00 265.00 L 382.00 269.00 L 386.00 269.00 L 388.00 267.00 L 388.00 264.00 L 384.00 261.00 L 386.00 259.00 L 389.00 259.00 L 390.00 258.00 L 398.00 258.00 L 399.00 259.00 L 402.00 259.00 L 403.00 260.00 L 405.00 260.00 L 409.00 262.00 L 415.00 262.00 L 416.00 263.00 L 418.00 262.00 L 421.00 262.00 L 425.00 259.00 L 423.00 260.00 L 421.00 260.00 L 420.00 261.00 L 412.00 261.00 L 411.00 260.00 L 408.00 260.00 L 405.00 258.00 L 403.00 258.00 L 402.00 257.00 L 399.00 257.00 L 398.00 256.00 L 390.00 256.00 L 389.00 257.00 L 386.00 257.00 L 384.00 258.00 L 380.00 262.00 L 380.00 264.00 Z
M 383.00 262.00 L 384.00 261.00 L 385.00 262.00 L 384.00 263.00 Z
M 441.00 249.00 L 439.00 251.00 L 439.00 254.00 L 441.00 256.00 L 444.00 256.00 L 447.00 252.00 L 446.00 250.00 L 444.00 249.00 Z
M 46.00 211.00 L 46.00 212.00 L 262.00 212.00 L 262.00 211.00 Z
M 635.00 211.00 L 635.00 212.00 L 838.00 212.00 L 838.00 211.00 L 647.00 211.00 L 646.00 210.00 L 644.00 210.00 L 643.00 211.00 L 637.00 211.00 L 636.00 210.00 Z"/>
  </g>
</svg>
